<?xml version="1.0" encoding="UTF-8"?>
<svg version="1.1" xmlns="http://www.w3.org/2000/svg" width="256" height="242">
<path d="M0 0 C2.09717626 2.68868752 3.47551151 4.98586847 5 8 C5.62214488 9.19283926 6.24455926 10.38553797 6.8671875 11.578125 C12 21.55066679 12 21.55066679 12 24 C12.66 23.83757813 13.32 23.67515625 14 23.5078125 C17.67955215 22.88497164 21.28127862 22.85441667 25 22.875 C25.69867188 22.87113281 26.39734375 22.86726563 27.1171875 22.86328125 C30.87074298 22.87036343 34.35151145 23.10212977 38 24 C38.23589844 23.19175781 38.47179687 22.38351563 38.71484375 21.55078125 C40.29093365 17.1961742 42.36685091 13.25621466 44.5625 9.1875 C44.97435547 8.41212891 45.38621094 7.63675781 45.81054688 6.83789062 C48.85226739 1.14773261 48.85226739 1.14773261 50 0 C56.80542948 0.10802269 62.7175293 1.6845747 69.125 3.8125 C69.87644287 4.0607251 70.62788574 4.3089502 71.40209961 4.56469727 C76.506964 6.3206991 81.21588737 8.49946041 86 11 C86.29445235 33.11664296 86.29445235 33.11664296 84 40 C84.67804688 40.22816406 85.35609375 40.45632812 86.0546875 40.69140625 C89.77501428 42.34433658 92.84662293 44.5460102 96.125 46.9375 C96.74503906 47.38029297 97.36507812 47.82308594 98.00390625 48.27929688 C102.74838597 51.7024645 102.74838597 51.7024645 104.44873047 53.71313477 C105.91335695 55.23520226 105.91335695 55.23520226 107.92578125 54.83032227 C110.14055542 53.94373482 112.12751905 52.91907897 114.1875 51.71484375 C114.96867188 51.26689453 115.74984375 50.81894531 116.5546875 50.35742188 C118.18659474 49.40982079 119.81680474 48.45929083 121.4453125 47.50585938 C122.22648438 47.05919922 123.00765625 46.61253906 123.8125 46.15234375 C124.52019531 45.73976318 125.22789062 45.32718262 125.95703125 44.90209961 C128 44 128 44 132 44 C134.0078125 45.94921875 134.0078125 45.94921875 136.125 48.6875 C136.90230469 49.68265625 137.67960938 50.6778125 138.48046875 51.703125 C138.8882959 52.23744141 139.29612305 52.77175781 139.71630859 53.32226562 C141.04211333 55.05504048 142.38800519 56.77061819 143.73828125 58.484375 C144.63882705 59.63478601 145.53858389 60.78581512 146.4375 61.9375 C146.86240723 62.48043701 147.28731445 63.02337402 147.72509766 63.58276367 C150.58721078 67.3000415 152.71283789 70.1095161 153.421875 74.77734375 C152.83901767 79.2297261 150.82175789 81.96131655 148.25 85.5625 C147.8065625 86.20896484 147.363125 86.85542969 146.90625 87.52148438 C145.04090583 90.21800396 143.27549904 92.72579137 140.94439697 95.04597473 C138.25571615 99.1307533 138.45407731 102.32611343 138.51757812 107.11376953 C138.51170937 108.47824471 138.51170937 108.47824471 138.50572205 109.87028503 C138.49975262 111.84219801 138.502907 113.81415508 138.5141449 115.78604507 C138.53142796 118.91503152 138.52388532 122.04309556 138.5098877 125.17208862 C138.48025391 132.94735589 138.49338729 140.72244697 138.50506592 148.4977417 C138.51329828 155.06323179 138.50520245 161.62831911 138.47593689 168.19375229 C138.46888402 171.2620074 138.48547327 174.32953767 138.50305176 177.3977356 C138.49939637 193.80652079 135.5490096 205.41993671 123.59765625 217.41015625 C98.33204632 239.56030751 61.03611182 242.74013278 29.0390625 242.52148438 C25.67435077 242.49869484 22.31090523 242.51225952 18.94623661 242.53525162 C-13.33828334 242.72206323 -51.64855858 238.82206226 -76 215 C-82.60131262 207.86712101 -88.17460497 199.00389598 -88.09765625 188.99316406 C-88.09443863 188.20566269 -88.09122101 187.41816132 -88.08790588 186.60679626 C-88.07952194 185.75170975 -88.071138 184.89662323 -88.0625 184.015625 C-88.05305486 182.13387168 -88.0438712 180.25211703 -88.03491211 178.37036133 C-88.02861786 177.37372467 -88.02232361 176.37708801 -88.01583862 175.35025024 C-87.98878676 170.05512137 -87.99874995 164.76002242 -88.00390625 159.46484375 C-88.01010348 152.73419191 -88.00492675 146.00437873 -87.94873047 139.27392578 C-87.90425156 133.82882017 -87.90403421 128.38525542 -87.93286133 122.94006348 C-87.93592656 120.87337434 -87.92319216 118.80659468 -87.89379883 116.7401123 C-87.73974227 105.27130156 -87.8006359 97.02047318 -95.76953125 88.28540039 C-96.87361328 87.1541272 -96.87361328 87.1541272 -98 86 C-99.05152787 84.56364143 -100.08041698 83.10970527 -101.0625 81.625 C-101.63677734 80.77808594 -101.63677734 80.77808594 -102.22265625 79.9140625 C-103.3543544 77.12746906 -103.28656505 74.98253891 -103 72 C-99.4118144 64.05210766 -93.14299834 57.37024352 -87.453125 50.84765625 C-85.5316535 48.61715828 -83.72311283 46.38363942 -82 44 C-75.29473392 44.48959086 -70.6027569 48.05635168 -65.1015625 51.58203125 C-64.37453125 52.03191406 -63.6475 52.48179688 -62.8984375 52.9453125 C-62.24536621 53.36312988 -61.59229492 53.78094727 -60.91943359 54.21142578 C-58.48851454 55.21013712 -57.42017669 54.94423326 -55 54 C-53.20010828 52.64728635 -51.45467622 51.22089205 -49.75 49.75 C-38.13397129 40 -38.13397129 40 -34 40 C-34.33 39.01 -34.66 38.02 -35 37 C-36.12687453 28.36062863 -36.11578174 19.69649526 -36 11 C-28.84267729 7.37777233 -21.74220389 4.40820053 -14.0625 2.125 C-13.35359619 1.91012939 -12.64469238 1.69525879 -11.91430664 1.47387695 C-7.86791395 0.31660386 -4.20267106 -0.52068491 0 0 Z " fill="#A900FD" transform="translate(103,0)"/>
<path d="M0 0 C9.32899283 0.45919913 18.63659541 1.07367553 27.9375 1.9375 C28.80729492 2.01210449 29.67708984 2.08670898 30.57324219 2.16357422 C31.78802246 2.28176514 31.78802246 2.28176514 33.02734375 2.40234375 C33.74656006 2.46929443 34.46577637 2.53624512 35.20678711 2.60522461 C37 3 37 3 39 5 C39.87433282 7.69882806 40.16667024 10.28578166 40.31640625 13.109375 C40.35830078 13.86347656 40.40019531 14.61757812 40.44335938 15.39453125 C40.48267578 16.17183594 40.52199219 16.94914062 40.5625 17.75 C40.60568359 18.54277344 40.64886719 19.33554688 40.69335938 20.15234375 C40.79902991 22.10137815 40.89997966 24.05066748 41 26 C41.8521106 26.03758423 41.8521106 26.03758423 42.72143555 26.07592773 C61.45979036 26.91122688 61.45979036 26.91122688 68.875 27.5625 C75.91994386 28.15497885 82.93516914 28.08794395 90 28 C90.19335938 26.80761719 90.38671875 25.61523438 90.5859375 24.38671875 C90.84857916 22.82024888 91.11162088 21.25384605 91.375 19.6875 C91.56449219 18.50897461 91.56449219 18.50897461 91.7578125 17.30664062 C91.88671875 16.54931641 92.015625 15.79199219 92.1484375 15.01171875 C92.26364746 14.31522217 92.37885742 13.61872559 92.49755859 12.90112305 C93 11 93 11 95 8 C97.74252444 7.69582772 100.25552627 7.57994202 103 7.6015625 C103.79148437 7.59869232 104.58296875 7.59582214 105.3984375 7.59286499 C107.07292394 7.59082223 108.74743412 7.59636693 110.421875 7.60888672 C112.99012429 7.62493828 115.55679986 7.60904617 118.125 7.58984375 C119.75000349 7.59182615 121.37500599 7.59566975 123 7.6015625 C123.77085937 7.59548981 124.54171875 7.58941711 125.3359375 7.5831604 C127.5 7.61181641 127.5 7.61181641 131 8 C132.85182095 10.77773142 133.3341681 11.88383445 133.8515625 15.01171875 C133.98046875 15.76904297 134.109375 16.52636719 134.2421875 17.30664062 C134.36851562 18.09232422 134.49484375 18.87800781 134.625 19.6875 C134.82609375 20.88342773 134.82609375 20.88342773 135.03125 22.10351562 C135.3606146 24.0679402 135.68116313 26.03383927 136 28 C145.54587371 28.13135268 154.92062268 27.76507216 164.4375 27 C178.96868971 25.85787781 178.96868971 25.85787781 185 26 C185.07347656 24.24623047 185.07347656 24.24623047 185.1484375 22.45703125 C185.22350171 20.90883196 185.29904795 19.36065599 185.375 17.8125 C185.4059375 17.04357422 185.436875 16.27464844 185.46875 15.48242188 C185.95478648 6.04521352 185.95478648 6.04521352 189 3 C191.21647515 2.69901586 193.44137703 2.45973566 195.66796875 2.24609375 C196.34040115 2.18092056 197.01283356 2.11574738 197.7056427 2.04859924 C199.13371692 1.91119917 200.56200485 1.77600544 201.99047852 1.64282227 C204.16153709 1.43992636 206.33174304 1.22933607 208.50195312 1.01757812 C214.34734164 0.45929717 220.12030871 -0.08979646 226 0 C226.59634756 16.91307929 225.63035894 28.75595336 214 42 C191.6790154 64.39357316 155.11980589 69.39914356 125.05384827 69.5512085 C122.38194655 69.54830755 119.71082435 69.53974157 117.0390625 69.52148438 C113.67435077 69.49869484 110.31090523 69.51225952 106.94623661 69.53525162 C74.66171666 69.72206323 36.35144142 65.82206226 12 42 C5.0750472 34.51741992 -0.16439776 25.6460504 -0.09765625 15.234375 C-0.09443359 14.34492188 -0.09121094 13.45546875 -0.08789062 12.5390625 C-0.07532227 11.15847656 -0.07532227 11.15847656 -0.0625 9.75 C-0.05798828 8.81414062 -0.05347656 7.87828125 -0.04882812 6.9140625 C-0.03706918 4.60930959 -0.02063426 2.30468773 0 0 Z " fill="#A900FC" transform="translate(15,173)"/>
<path d="M0 0 C8.75100668 -0.21488237 17.34465628 0.34512857 26.04003906 1.22680664 C28.15622879 1.44065579 30.27327119 1.6437379 32.390625 1.84570312 C42.722234 2.861117 42.722234 2.861117 45 4 C46.69868678 8.63786194 46.43225773 13.90967172 46.71875 18.78515625 C46.87584879 22.01478796 46.87584879 22.01478796 48 25 C60.38081265 26.35798878 72.5387362 27.3172599 85 27 C85.20496094 25.71222656 85.40992187 24.42445313 85.62109375 23.09765625 C85.89301652 21.41923637 86.16516351 19.7408528 86.4375 18.0625 C86.63956055 16.78729492 86.63956055 16.78729492 86.84570312 15.48632812 C87.04389648 14.27299805 87.04389648 14.27299805 87.24609375 13.03515625 C87.36654053 12.2862915 87.4869873 11.53742676 87.61108398 10.76586914 C88 9 88 9 89 8 C90.50418739 7.90688111 92.01271356 7.88253972 93.51977539 7.88647461 C94.96115623 7.88658791 94.96115623 7.88658791 96.43165588 7.88670349 C97.99882607 7.89444542 97.99882607 7.89444542 99.59765625 7.90234375 C100.66165146 7.9037587 101.72564667 7.90517365 102.82188416 7.90663147 C106.23545083 7.91224936 109.648953 7.92480489 113.0625 7.9375 C115.37044176 7.94251269 117.67838455 7.947076 119.98632812 7.95117188 C125.65757426 7.9622246 131.32878253 7.97898013 137 8 C138.65786535 11.95062208 139.48959354 15.49412348 140.0625 19.75 C140.2832887 23.69615745 140.2832887 23.69615745 142 27 C154.03424849 27.76549214 166.0531003 26.29808822 178 25 C179.13468583 21.5959425 179.28958323 18.6433425 179.5 15.0625 C179.98885518 6.76069144 179.98885518 6.76069144 181 4 C185.35094849 1.82452575 190.91151077 2.10304073 195.73632812 1.64282227 C197.83280633 1.44155079 199.92806789 1.23004047 202.0234375 1.01757812 C210.0296402 0.22965592 217.94829955 -0.19771079 226 0 C226 1.98 226 3.96 226 6 C221.70843746 6.48010219 217.41673138 6.95890962 213.125 7.4375 C211.92101562 7.57220703 210.71703125 7.70691406 209.4765625 7.84570312 C202.654851 8.60573077 195.83196768 9.33810997 189 10 C186.68360544 14.84848577 186.58318718 19.43588621 186.34570312 24.73632812 C186.08746885 29.82506229 186.08746885 29.82506229 185 32 C183.1809082 32.39477539 183.1809082 32.39477539 180.80078125 32.59765625 C179.9281665 32.6764502 179.05555176 32.75524414 178.15649414 32.83642578 C177.21797607 32.91103027 176.27945801 32.98563477 175.3125 33.0625 C174.35657959 33.14483887 173.40065918 33.22717773 172.41577148 33.31201172 C169.61118292 33.55046903 166.80576196 33.77584964 164 34 C162.66140066 34.11521734 161.32285055 34.23100971 159.984375 34.34765625 C151.97984413 34.9964253 144.02836682 35.10981049 136 35 C133.84721532 31.41502803 133.44860471 27.98960768 132.9375 23.875 C132.48587478 19.28373754 132.48587478 19.28373754 131 15 C119.12 15 107.24 15 95 15 C93.73758209 20.68088058 92.53152035 26.31880012 91.46484375 32.03125 C91 34 91 34 90 35 C80.1731897 35.68931948 70.23642776 34.7577774 60.4375 34.0625 C58.59998169 33.93234497 58.59998169 33.93234497 56.7253418 33.79956055 C45.27318795 32.94461586 45.27318795 32.94461586 41 32 C39.51957314 29.03914629 39.70830967 25.94184785 39.5625 22.6875 C39.34387351 17.93818829 38.87203673 14.3502969 37 10 C36.09233887 9.91435791 35.18467773 9.82871582 34.24951172 9.74047852 C30.86116265 9.4197483 27.47300667 9.09710625 24.08496094 8.77319336 C22.62246803 8.63376214 21.1599036 8.49507892 19.69726562 8.35717773 C17.58704391 8.15808665 15.4770996 7.95624907 13.3671875 7.75390625 C12.09987793 7.63345947 10.83256836 7.5130127 9.52685547 7.38891602 C6.32293712 7.03561116 3.17247515 6.56575095 0 6 C0 4.02 0 2.04 0 0 Z " fill="#403F43" transform="translate(15,167)"/>
<path d="M0 0 C6.17168903 4.15402146 8.71248794 9.13746382 11 16 C11.79723437 23.77303507 9.85581635 29.35974485 6.375 36.1875 C2.42830486 40.86121793 -2.98472495 43.81164627 -9 45 C-16.91616639 45.6208758 -23.27537985 43.74626754 -29.375 38.6875 C-34.89501937 33.47475805 -36.58872619 28.19499283 -37.3125 20.8125 C-36.78577323 14.38643339 -34.68554932 8.98052045 -30.5 4.0625 C-29.675 3.381875 -28.85 2.70125 -28 2 C-27.360625 1.443125 -26.72125 0.88625 -26.0625 0.3125 C-18.12100202 -4.74118054 -8.15202139 -4.35711488 0 0 Z " fill="#434246" transform="translate(82,104)"/>
<path d="M0 0 C3.07488559 0.9452373 4.38273468 2.10452101 6.60913086 4.40332031 C7.31489258 5.12197266 8.0206543 5.840625 8.74780273 6.58105469 C9.4690332 7.33580078 10.19026367 8.09054688 10.93334961 8.86816406 C11.67391602 9.62677734 12.41448242 10.38539062 13.17749023 11.16699219 C15.00128795 13.03785565 16.81509265 14.91740898 18.62084961 16.80566406 C23.67891823 12.61900565 28.23921035 8.23989523 32.61303711 3.33496094 C33.97241211 1.90332031 33.97241211 1.90332031 36.62084961 -0.19433594 C40.33964109 -0.13426735 41.49016197 0.70111395 44.43334961 3.05566406 C46.62084961 5.80566406 46.62084961 5.80566406 46.97631836 8.22827148 C46.5235145 11.51141042 45.49148774 12.51591023 43.12084961 14.79394531 C42.39897461 15.49970703 41.67709961 16.20546875 40.93334961 16.93261719 C40.17022461 17.65384766 39.40709961 18.37507813 38.62084961 19.11816406 C37.85772461 19.85873047 37.09459961 20.59929687 36.30834961 21.36230469 C34.42324929 23.18849562 32.52749392 25.00202165 30.62084961 26.80566406 C31.96757438 29.82931025 33.44691978 31.84596592 35.84350586 34.11816406 C36.46418945 34.71886719 37.08487305 35.31957031 37.72436523 35.93847656 C39.03240306 37.18522049 40.34230761 38.43000881 41.65405273 39.67285156 C42.58314453 40.57390625 42.58314453 40.57390625 43.53100586 41.49316406 C44.38384155 42.30333984 44.38384155 42.30333984 45.25390625 43.12988281 C46.81409226 45.04256664 47.32981891 46.36380754 47.62084961 48.80566406 C46.36303711 50.76269531 46.36303711 50.76269531 44.49584961 52.61816406 C43.89514648 53.24335938 43.29444336 53.86855469 42.67553711 54.51269531 C40.62084961 55.80566406 40.62084961 55.80566406 38.21923828 55.59985352 C35.23220019 54.68687457 34.08503935 53.67620166 31.99194336 51.39160156 C31.3493457 50.71355469 30.70674805 50.03550781 30.04467773 49.33691406 C28.71477168 47.89324023 27.38665986 46.44791161 26.06030273 45.00097656 C25.41899414 44.32550781 24.77768555 43.65003906 24.11694336 42.95410156 C23.54129639 42.32681152 22.96564941 41.69952148 22.37255859 41.05322266 C20.70712783 39.59601409 20.70712783 39.59601409 18.62084961 39.89550781 C16.21008826 40.99259257 14.91102384 42.26620689 13.12475586 44.21972656 C12.16279297 45.23679687 12.16279297 45.23679687 11.18139648 46.27441406 C9.84726331 47.71418242 8.51913438 49.15953741 7.19702148 50.61035156 C6.233125 51.62355469 6.233125 51.62355469 5.24975586 52.65722656 C4.67298096 53.2845166 4.09620605 53.91180664 3.50195312 54.55810547 C1.62084961 55.80566406 1.62084961 55.80566406 -0.93017578 55.64306641 C-4.41771177 54.4505384 -6.10299813 52.66711261 -8.37915039 49.80566406 C-8.83448442 46.70245004 -8.76261702 45.33732882 -6.91040039 42.76928711 C-6.24008789 42.12515869 -5.56977539 41.48103027 -4.87915039 40.81738281 C-4.15727539 40.11162109 -3.43540039 39.40585938 -2.69165039 38.67871094 C-1.92852539 37.95748047 -1.16540039 37.23625 -0.37915039 36.49316406 C0.38397461 35.75259766 1.14709961 35.01203125 1.93334961 34.24902344 C3.81844992 32.42283251 5.7142053 30.60930647 7.62084961 28.80566406 C6.27412484 25.78201787 4.79477943 23.7653622 2.39819336 21.49316406 C1.77750977 20.89246094 1.15682617 20.29175781 0.51733398 19.67285156 C-0.79070384 18.42610763 -2.10060839 17.18131932 -3.41235352 15.93847656 C-4.03174805 15.33777344 -4.65114258 14.73707031 -5.28930664 14.11816406 C-5.85786377 13.57804687 -6.4264209 13.03792969 -7.01220703 12.48144531 C-8.57239304 10.56876148 -9.08811969 9.24752059 -9.37915039 6.80566406 C-8.12133789 4.84863281 -8.12133789 4.84863281 -6.25415039 2.99316406 C-5.65344727 2.36796875 -5.05274414 1.74277344 -4.43383789 1.09863281 C-2.37915039 -0.19433594 -2.37915039 -0.19433594 0 0 Z " fill="#413E45" transform="translate(166.379150390625,98.1943359375)"/>
<path d="M0 0 C5.00230198 2.45567552 8.49851535 5.9970307 11 11 C11.76457906 16.74886025 11.84306022 21.62715054 8.4375 26.5 C4.30193234 31.21532013 -0.2410827 33.06210204 -6.4375 33.5625 C-11.88093565 33.37639964 -15.21030314 30.70073684 -19 27 C-22.61696305 23.04394666 -22.50382043 18.80533633 -22.3515625 13.65625 C-21.68072597 8.5877073 -19.08414109 5.95507667 -15.375 2.6875 C-10.48380548 -0.78782242 -5.87256961 -0.59805518 0 0 Z " fill="#FAFAFA" transform="translate(77,110)"/>
<path d="M0 0 C1.0209375 0.01546875 1.0209375 0.01546875 2.0625 0.03125 C2.743125 0.0209375 3.42375 0.010625 4.125 0 C6.93582851 0.77071104 7.58095174 2.05334188 9.0625 4.53125 C9.692936 9.00791697 9.52590131 13.51500358 9.5 18.03125 C9.51998047 19.26746094 9.53996094 20.50367188 9.56054688 21.77734375 C9.55990234 22.96457031 9.55925781 24.15179688 9.55859375 25.375 C9.56044678 26.45974609 9.5622998 27.54449219 9.56420898 28.66210938 C8.94562013 32.19965499 7.88624875 33.37531639 5.0625 35.53125 C2.0625 36.03125 2.0625 36.03125 -0.9375 35.53125 C-3.76124875 33.37531639 -4.82062013 32.19965499 -5.43920898 28.66210938 C-5.43735596 27.57736328 -5.43550293 26.49261719 -5.43359375 25.375 C-5.43423828 24.18777344 -5.43488281 23.00054687 -5.43554688 21.77734375 C-5.41556641 20.54113281 -5.39558594 19.30492187 -5.375 18.03125 C-5.38208984 16.79503906 -5.38917969 15.55882812 -5.39648438 14.28515625 C-5.30593392 1.45485285 -5.30593392 1.45485285 0 0 Z " fill="#403F42" transform="translate(125.9375,115.46875)"/>
<path d="M0 0 C1.32 0.33 2.64 0.66 4 1 C3.236875 1.556875 2.47375 2.11375 1.6875 2.6875 C-0.96140888 4.96679369 -2.38288822 6.93599872 -4 10 C-4.33 9.34 -4.66 8.68 -5 8 C-4.00390625 6.0546875 -4.00390625 6.0546875 -2.5625 3.875 C-2.08941406 3.15054687 -1.61632812 2.42609375 -1.12890625 1.6796875 C-0.75636719 1.12539063 -0.38382813 0.57109375 0 0 Z " fill="#B005ED" transform="translate(153,0)"/>
</svg>
